<svg width="212" height="212" viewBox="0 0 212 212" fill="none" xmlns="http://www.w3.org/2000/svg">
<path d="M175.792 115.373C176.105 112.661 176.267 109.902 176.267 107.105C176.267 67.835 144.476 36 105.26 36C66.0441 36 34.2534 67.835 34.2534 107.105C34.2534 109.902 34.4147 112.661 34.7283 115.373H175.792Z" fill="#EAEAEA"/>
<path fill-rule="evenodd" clip-rule="evenodd" d="M46.813 58.1601C46.0268 55.226 47.7649 52.1986 50.699 51.4124L65.5946 47.4211C68.5286 46.6349 71.5476 48.3878 72.3338 51.3218C73.12 54.2559 71.3819 57.2834 68.4478 58.0696L53.5522 62.0608C50.6182 62.847 47.5992 61.0942 46.813 58.1601Z" fill="#EAEAEA"/>
<path fill-rule="evenodd" clip-rule="evenodd" d="M30.2251 84.964C29.5948 87.3164 30.9908 89.7344 33.3432 90.3647L46.0917 93.7807C48.4441 94.411 50.8621 93.015 51.4924 90.6626C52.1227 88.3102 50.7267 85.8922 48.3743 85.2619L35.6258 81.8459C33.2734 81.2156 30.8554 82.6116 30.2251 84.964Z" fill="#EAEAEA"/>
<path fill-rule="evenodd" clip-rule="evenodd" d="M57.7466 46.3795C57.1162 48.7319 58.5123 51.1499 60.8646 51.7802L73.6132 55.1962C75.9656 55.8265 78.3836 54.4305 79.0139 52.0781C79.6442 49.7257 78.2482 47.3077 75.8958 46.6774L63.1472 43.2615C60.7949 42.6311 58.3769 44.0271 57.7466 46.3795Z" fill="#EAEAEA"/>
<path fill-rule="evenodd" clip-rule="evenodd" d="M162.681 55.1989C163.311 57.5513 161.915 59.9692 159.563 60.5996L146.814 64.0155C144.462 64.6458 142.044 63.2498 141.414 60.8974C140.783 58.545 142.179 56.1271 144.532 55.4968L157.28 52.0808C159.633 51.4505 162.051 52.8465 162.681 55.1989Z" fill="#EAEAEA"/>
<path fill-rule="evenodd" clip-rule="evenodd" d="M170.762 62.4577C170.762 64.8931 168.788 66.8674 166.353 66.8674H153.154C150.719 66.8674 148.745 64.8931 148.745 62.4577C148.745 60.0224 150.719 58.0481 153.154 58.0481H166.353C168.788 58.0481 170.762 60.0224 170.762 62.4577Z" fill="#EAEAEA"/>
<path d="M108.768 40.7604C106.835 38.8273 103.69 38.8322 101.757 40.7652C99.8239 42.6983 99.819 45.843 101.752 47.7761C103.685 49.7092 106.83 49.7043 108.763 47.7712C110.696 45.8381 110.701 42.6935 108.768 40.7604Z" fill="white"/>
<path d="M79.1674 55.2245C77.3117 53.3687 77.319 50.3526 79.1748 48.4968C81.0306 46.641 84.0467 46.6337 85.9025 48.4894L96.1322 58.7192C97.988 60.5749 97.9807 63.5911 96.1249 65.4469C94.2691 67.3027 91.253 67.31 89.3972 65.4542L79.1674 55.2245Z" fill="white"/>
<path d="M48.7651 105.16C46.9093 103.304 46.9167 100.288 48.7725 98.4321C50.6282 96.5763 53.6444 96.569 55.5002 98.4247L65.7299 108.654C67.5857 110.51 67.5783 113.526 65.7225 115.382C63.8668 117.238 60.8506 117.245 58.9948 115.39L48.7651 105.16Z" fill="white"/>
<path d="M80.6904 105.16C78.8346 103.304 78.842 100.288 80.6978 98.4321C82.5535 96.5763 85.5697 96.569 87.4255 98.4247L97.6552 108.654C99.511 110.51 99.5036 113.526 97.6478 115.382C95.7921 117.238 92.7759 117.245 90.9201 115.39L80.6904 105.16Z" fill="white"/>
<path d="M112.624 98.4321C110.768 100.288 110.76 103.304 112.616 105.16L122.846 115.39C124.702 117.245 127.718 117.238 129.574 115.382C131.429 113.526 131.437 110.51 129.581 108.654L119.351 98.4247C117.495 96.569 114.479 96.5763 112.624 98.4321Z" fill="white"/>
<path d="M65.6357 90.4677C63.78 88.6119 63.7726 85.5958 65.6284 83.74L75.8581 73.5103C77.7139 71.6545 80.73 71.6619 82.5858 73.5176C84.4416 75.3734 84.449 78.3896 82.5932 80.2453L72.3635 90.4751C70.5077 92.3308 67.4915 92.3235 65.6357 90.4677Z" fill="white"/>
<path d="M95.9028 83.74C94.047 85.5958 94.0544 88.6119 95.9102 90.4677C97.7659 92.3235 100.782 92.3308 102.638 90.4751L112.868 80.2453C114.723 78.3896 114.716 75.3734 112.86 73.5176C111.004 71.6619 107.988 71.6545 106.133 73.5103L95.9028 83.74Z" fill="white"/>
<path d="M126.184 90.4677C124.328 88.6119 124.321 85.5958 126.177 83.74L136.406 73.5103C138.262 71.6545 141.278 71.6619 143.134 73.5176C144.99 75.3734 144.997 78.3896 143.142 80.2453L132.912 90.4751C131.056 92.3308 128.04 92.3235 126.184 90.4677Z" fill="white"/>
<path d="M160.509 77.14C158.576 75.2069 155.431 75.2118 153.498 77.1449C151.565 79.078 151.56 82.2226 153.493 84.1557C155.426 86.0888 158.571 86.0839 160.504 84.1508C162.437 82.2177 162.442 79.0731 160.509 77.14Z" fill="white"/>
<path d="M50.0157 77.1449C51.9488 75.2118 55.0935 75.2069 57.0266 77.14C58.9597 79.0731 58.9548 82.2177 57.0217 84.1508C55.0886 86.0839 51.944 86.0888 50.0109 84.1557C48.0778 82.2226 48.0826 79.078 50.0157 77.1449Z" fill="white"/>
<path d="M115.175 66.2148C113.32 64.359 113.312 61.3428 115.168 59.4871L125.398 49.2573C127.253 47.4016 130.27 47.4089 132.125 49.2647C133.981 51.1205 133.989 54.1366 132.133 55.9924L121.903 66.2221C120.047 68.0779 117.031 68.0706 115.175 66.2148Z" fill="white"/>
<path d="M141.239 105.16C139.383 103.304 139.39 100.288 141.246 98.4321C143.102 96.5763 146.118 96.569 147.974 98.4247L158.204 108.654C160.059 110.51 160.052 113.526 158.196 115.382C156.34 117.238 153.324 117.245 151.468 115.39L141.239 105.16Z" fill="white"/>
<path fill-rule="evenodd" clip-rule="evenodd" d="M30.6194 115.654C31.2393 114.79 32.2371 114.278 33.3 114.278H178.32C179.383 114.278 180.381 114.79 181.001 115.654C181.621 116.517 181.787 117.626 181.447 118.633C170.843 150.06 140.981 172.692 105.81 172.692C70.6387 172.692 40.7774 150.06 30.1732 118.633C29.8334 117.626 29.9995 116.517 30.6194 115.654Z" fill="#4E4A4A"/>
<path d="M69.481 156.696C69.481 152.139 73.1746 148.446 77.731 148.446H133.889C138.445 148.446 142.139 152.139 142.139 156.696V167.756C142.139 172.312 138.445 176.006 133.889 176.006H77.731C73.1746 176.006 69.481 172.312 69.481 167.756V156.696Z" fill="#4E4A4A"/>
<path opacity="0.121373" fill-rule="evenodd" clip-rule="evenodd" d="M66.4683 119.783H80.0009C83.3235 119.783 86.1281 122.253 86.548 125.549C87.078 129.709 88.3155 134.034 90.2605 138.524C92.0885 142.744 95.764 146.818 101.287 150.746C102.904 151.896 103.282 154.139 102.132 155.755C101.458 156.703 100.368 157.265 99.2052 157.265H87.1713C86.3623 157.265 85.5603 157.116 84.8051 156.826C76.3094 153.564 69.8254 148.244 65.3532 140.867C62.503 136.165 60.7081 131.72 59.9687 127.53C59.3352 123.941 61.7316 120.517 65.3212 119.884C65.6999 119.817 66.0837 119.783 66.4683 119.783Z" fill="white"/>
</svg>
