<?xml version="1.0" encoding="UTF-8"?><svg width="212px" height="212px" viewBox="0 0 212 212" version="1.1" xmlns="http://www.w3.org/2000/svg" xmlns:xlink="http://www.w3.org/1999/xlink"><title>sushi</title><desc>Created with Sketch.</desc><defs><path d="M4,0 L179,0 C181.209139,0 183,1.790861 183,4 L183,91 C183,93.209139 181.209139,95 179,95 L4,95 C1.790861,95 0,93.209139 0,91 L0,4 C0,1.790861 1.790861,0 4,0 Z" id="path-1"/><path d="M9,0 L37,0 C41.9705627,0 46,4.02943725 46,9 L46,11 C46,15.9705627 41.9705627,20 37,20 L9,20 C4.02943725,20 0,15.9705627 0,11 L0,9 C0,4.02943725 4.02943725,0 9,0 Z" id="path-3"/><path d="M9,0 L37,0 C41.9705627,0 46,4.02943725 46,9 L46,11 C46,15.9705627 41.9705627,20 37,20 L9,20 C4.02943725,20 0,15.9705627 0,11 L0,9 C0,4.02943725 4.02943725,0 9,0 Z" id="path-5"/><path d="M9,0 L37,0 C41.9705627,0 46,4.02943725 46,9 L46,11 C46,15.9705627 41.9705627,20 37,20 L9,20 C4.02943725,20 0,15.9705627 0,11 L0,9 C0,4.02943725 4.02943725,0 9,0 Z" id="path-7"/></defs><g id="sushi" stroke="none" stroke-width="1" fill="none" fill-rule="evenodd"><path d="M18,157 L193,157 C195.209139,157 197,158.790861 197,161 L197,178 C197,180.209139 195.209139,182 193,182 L18,182 C15.790861,182 14,180.209139 14,178 L14,161 C14,158.790861 15.790861,157 18,157 Z" id="Rectangle" fill="#CD7900" fill-rule="nonzero"/><g id="Rectangle" transform="translate(14.000000, 74.000000)"><mask id="mask-2" fill="white"><use xlink:href="#path-1"/></mask><use id="Mask" fill="#E5A259" fill-rule="nonzero" xlink:href="#path-1"/><path d="M149.5,53 L187.5,53 C188.880712,53 190,54.1192881 190,55.5 C190,56.8807119 188.880712,58 187.5,58 L149.5,58 C148.119288,58 147,56.8807119 147,55.5 C147,54.1192881 148.119288,53 149.5,53 Z" id="Rectangle-Copy-3" fill="#DB8E3A" fill-rule="nonzero" mask="url(#mask-2)"/><path d="M164.5,64 L202.5,64 C203.880712,64 205,65.1192881 205,66.5 C205,67.8807119 203.880712,69 202.5,69 L164.5,69 C163.119288,69 162,67.8807119 162,66.5 C162,65.1192881 163.119288,64 164.5,64 Z" id="Rectangle-Copy-4" fill="#DB8E3A" fill-rule="nonzero" mask="url(#mask-2)"/><path d="M90.5,75 L128.5,75 C129.880712,75 131,76.1192881 131,77.5 C131,78.8807119 129.880712,80 128.5,80 L90.5,80 C89.1192881,80 88,78.8807119 88,77.5 C88,76.1192881 89.1192881,75 90.5,75 Z" id="Rectangle-Copy-5" fill="#DB8E3A" fill-rule="nonzero" mask="url(#mask-2)"/><path d="M-26.5,9 L11.5,9 C12.8807119,9 14,10.1192881 14,11.5 C14,12.8807119 12.8807119,14 11.5,14 L-26.5,14 C-27.8807119,14 -29,12.8807119 -29,11.5 C-29,10.1192881 -27.8807119,9 -26.5,9 Z" id="Rectangle-Copy-6" fill="#DB8E3A" fill-rule="nonzero" mask="url(#mask-2)"/></g><g id="Group" transform="translate(140.182745, 80.253164) rotate(-1.000000) translate(-140.182745, -80.253164) translate(96.682745, 40.753164)"><path d="M25,0 L62,0 C75.8071187,0 87,11.1928813 87,25 L87,54 C87,67.8071187 75.8071187,79 62,79 L25,79 C11.1928813,79 0,67.8071187 0,54 L0,25 C0,11.1928813 11.1928813,0 25,0 Z" id="Rectangle-Copy" fill="#4B4B4B" fill-rule="nonzero"/><path d="M23,50 L41,50 L41,69 C41,71.209139 39.209139,73 37,73 L27,73 C24.790861,73 23,71.209139 23,69 L23,50 Z" id="Rectangle" fill="#636363" fill-rule="nonzero"/><path d="M60,1 L27,1 C20.372583,1 14.372583,3.6862915 10.0294373,8.02943725 C5.6862915,12.372583 3,18.372583 3,25 L3,28 C3,34.627417 5.6862915,40.627417 10.0294373,44.9705627 C14.372583,49.3137085 20.372583,52 27,52 L60,52 C66.627417,52 72.627417,49.3137085 76.9705627,44.9705627 C81.3137085,40.627417 84,34.627417 84,28 L84,25 C84,18.372583 81.3137085,12.372583 76.9705627,8.02943725 C72.627417,3.6862915 66.627417,1 60,1 Z" id="Rectangle" stroke="#636363" stroke-width="6" fill="#FFFFFF" fill-rule="nonzero"/><g id="Path-117" transform="translate(20.000000, 13.000000)"><mask id="mask-4" fill="white"><use xlink:href="#path-3"/></mask><use id="Mask" fill="#FF7A00" fill-rule="nonzero" xlink:href="#path-3"/><path d="M36.1722358,-13.3379405 L39.5646284,-11.2185839 C27.1905418,8.58825766 2.72807121,17.1548462 -19.2995886,9.39525901 L-24.976113,7.39561466 L-23.6470992,3.6228541 L-17.9705748,5.62249845 C2.29028101,12.7597013 24.7906553,4.88022541 36.1722358,-13.3379405 Z" id="Path" fill="#FFCA9B" fill-rule="nonzero" mask="url(#mask-4)"/><path d="M41.6841124,-5.33808274 L45.4944869,-4.1211002 C40.1781428,12.5243821 24.2938061,23.4814907 6.84537226,22.5392857 L-10.0014397,21.6295679 L-9.78575637,17.6353871 L7.06105564,18.5451049 C22.6918954,19.3891609 36.9215691,9.57344848 41.6841124,-5.33808274 Z" id="Path" fill="#FFCA9B" fill-rule="nonzero" mask="url(#mask-4)"/></g></g><g id="Group-Copy" transform="translate(106.500000, 100.500000) rotate(-1.000000) translate(-106.500000, -100.500000) translate(63.000000, 61.000000)"><path d="M25,0 L62,0 C75.8071187,0 87,11.1928813 87,25 L87,54 C87,67.8071187 75.8071187,79 62,79 L25,79 C11.1928813,79 0,67.8071187 0,54 L0,25 C0,11.1928813 11.1928813,0 25,0 Z" id="Rectangle-Copy" fill="#4B4B4B" fill-rule="nonzero"/><path d="M23,50 L41,50 L41,69 C41,71.209139 39.209139,73 37,73 L27,73 C24.790861,73 23,71.209139 23,69 L23,50 Z" id="Rectangle" fill="#636363" fill-rule="nonzero"/><path d="M60,1 L27,1 C20.372583,1 14.372583,3.6862915 10.0294373,8.02943725 C5.6862915,12.372583 3,18.372583 3,25 L3,28 C3,34.627417 5.6862915,40.627417 10.0294373,44.9705627 C14.372583,49.3137085 20.372583,52 27,52 L60,52 C66.627417,52 72.627417,49.3137085 76.9705627,44.9705627 C81.3137085,40.627417 84,34.627417 84,28 L84,25 C84,18.372583 81.3137085,12.372583 76.9705627,8.02943725 C72.627417,3.6862915 66.627417,1 60,1 Z" id="Rectangle" stroke="#636363" stroke-width="6" fill="#FFFFFF" fill-rule="nonzero"/><g id="Path-117" transform="translate(20.000000, 13.000000)"><mask id="mask-6" fill="white"><use xlink:href="#path-5"/></mask><use id="Mask" fill="#FF7A00" fill-rule="nonzero" xlink:href="#path-5"/><path d="M35.1549357,-12.3555452 L38.5473283,-10.2361886 C26.1732417,9.57065295 1.7107711,18.1372415 -20.3168887,10.3776543 L-25.9934131,8.37800995 L-24.6643993,4.60524938 L-18.9878749,6.60489374 C1.27298091,13.7420966 23.7733552,5.8626207 35.1549357,-12.3555452 Z" id="Path" fill="#FFCA9B" fill-rule="nonzero" mask="url(#mask-6)"/><path d="M40.6668123,-4.35568745 L44.4771868,-3.13870491 C39.1608427,13.5067774 23.276506,24.463886 5.82807216,23.521681 L-11.0187398,22.6119632 L-10.8030565,18.6177824 L6.04375554,19.5275002 C21.6745953,20.3715562 35.904269,10.5558438 40.6668123,-4.35568745 Z" id="Path" fill="#FFCA9B" fill-rule="nonzero" mask="url(#mask-6)"/></g></g><g id="Group-Copy-2" transform="translate(72.182745, 121.253164) rotate(-1.000000) translate(-72.182745, -121.253164) translate(28.682745, 81.753164)"><path d="M25,0 L62,0 C75.8071187,0 87,11.1928813 87,25 L87,54 C87,67.8071187 75.8071187,79 62,79 L25,79 C11.1928813,79 0,67.8071187 0,54 L0,25 C0,11.1928813 11.1928813,0 25,0 Z" id="Rectangle-Copy" fill="#4B4B4B" fill-rule="nonzero"/><path d="M23,50 L41,50 L41,69 C41,71.209139 39.209139,73 37,73 L27,73 C24.790861,73 23,71.209139 23,69 L23,50 Z" id="Rectangle" fill="#636363" fill-rule="nonzero"/><path d="M60,1 L27,1 C20.372583,1 14.372583,3.6862915 10.0294373,8.02943725 C5.6862915,12.372583 3,18.372583 3,25 L3,28 C3,34.627417 5.6862915,40.627417 10.0294373,44.9705627 C14.372583,49.3137085 20.372583,52 27,52 L60,52 C66.627417,52 72.627417,49.3137085 76.9705627,44.9705627 C81.3137085,40.627417 84,34.627417 84,28 L84,25 C84,18.372583 81.3137085,12.372583 76.9705627,8.02943725 C72.627417,3.6862915 66.627417,1 60,1 Z" id="Rectangle" stroke="#636363" stroke-width="6" fill="#FFFFFF" fill-rule="nonzero"/><g id="Path-117" transform="translate(20.000000, 13.000000)"><mask id="mask-8" fill="white"><use xlink:href="#path-7"/></mask><use id="Mask" fill="#FF7A00" fill-rule="nonzero" xlink:href="#path-7"/><path d="M37.1720835,-13.3204881 L40.5644761,-11.2011315 C28.1903895,8.60571007 3.7279189,17.1722986 -18.299741,9.41271142 L-23.9762653,7.41306706 L-22.6472515,3.6403065 L-16.9707271,5.63995086 C3.29012871,12.7771537 25.790503,4.89767782 37.1720835,-13.3204881 Z" id="Path" fill="#FFCA9B" fill-rule="nonzero" mask="url(#mask-8)"/><path d="M41.66666,-4.33823505 L45.4770345,-3.1212525 C40.1606904,13.5242298 24.2763537,24.4813384 6.82791985,23.5391334 L-10.0188922,22.6294156 L-9.80320877,18.6352348 L7.04360323,19.5449526 C22.674443,20.3890086 36.9041167,10.5732962 41.66666,-4.33823505 Z" id="Path" fill="#FFCA9B" fill-rule="nonzero" mask="url(#mask-8)"/></g></g></g></svg>